<?xml version="1.0" ?><!DOCTYPE svg  PUBLIC '-//W3C//DTD SVG 1.1//EN'  'http://www.w3.org/Graphics/SVG/1.1/DTD/svg11.dtd'><svg height="100%" style="fill-rule:evenodd;clip-rule:evenodd;stroke-linejoin:round;stroke-miterlimit:2;" version="1.1" viewBox="0 0 128 128" width="100%" xml:space="preserve" xmlns="http://www.w3.org/2000/svg" xmlns:serif="http://www.serif.com/" xmlns:xlink="http://www.w3.org/1999/xlink"><g id="Icon"/><path d="M62,35c-0,-13.807 -11.193,-25 -25,-25l-0,0c-13.807,0 -25,11.193 -25,25l0,58c0,13.807 11.193,25 25,25l0,0c13.807,-0 25,-11.193 25,-25l0,-58Z" style="fill:#424243;"/><path d="M60,53.205l-22.037,1.669c-3.565,0.27 -7.084,-0.843 -9.837,-3.086c0.406,0.499 0.85,0.972 1.327,1.415c2.84,2.633 6.648,3.963 10.51,3.671l20.037,-1.518l0,35.644c-0,13.807 -11.193,25 -25,25l0,0c-6.394,0 -12.227,-2.4 -16.649,-6.351c4.577,5.125 11.236,8.351 18.649,8.351l0,0c13.807,-0 25,-11.193 25,-25l0,-58c-0,-7.413 -3.226,-14.073 -8.351,-18.649c3.951,4.421 6.351,10.255 6.351,16.649l0,20.205Zm-37.395,46.19c-4.044,-3.485 -6.605,-8.643 -6.605,-14.395c0,-10.486 8.514,-19 19,-19c5.752,0 10.91,2.561 14.395,6.605c-3.328,-2.869 -7.66,-4.605 -12.395,-4.605c-10.486,0 -19,8.514 -19,19c0,4.735 1.736,9.067 4.605,12.395Z" style="fill:#202020;"/><circle cx="37" cy="41" r="19" style="fill:#f6f8f9;"/><path d="M49.395,26.605c4.044,3.485 6.605,8.643 6.605,14.395c0,10.486 -8.514,19 -19,19c-5.752,0 -10.91,-2.561 -14.395,-6.605c3.328,2.869 7.66,4.605 12.395,4.605c10.486,0 19,-8.514 19,-19c0,-4.735 -1.736,-9.067 -4.605,-12.395Z" style="fill:#e0e1e0;"/><path d="M48.344,56.239l-8.381,0.635c-3.862,0.292 -7.67,-1.038 -10.51,-3.671c-0.477,-0.443 -0.921,-0.916 -1.327,-1.415c2.753,2.243 6.272,3.356 9.837,3.086l12.991,-0.984c-0.795,0.86 -1.669,1.647 -2.61,2.349Z" style="fill:#e0e1e0;"/><path d="M116,40.944c-0,-4.501 -3.47,-8.24 -7.958,-8.576c-15.542,-1.162 -50.146,-3.751 -70.092,-5.243c-3.859,-0.288 -7.665,1.043 -10.501,3.676c-2.837,2.632 -4.449,6.327 -4.449,10.197c0,0.001 0,0.002 0,0.003c0,3.873 1.614,7.57 4.453,10.202c2.84,2.633 6.648,3.963 10.51,3.671c19.951,-1.511 54.553,-4.132 70.086,-5.308c4.485,-0.34 7.951,-4.078 7.951,-8.576c-0,-0.015 -0,-0.03 -0,-0.046Z" style="fill:#767576;"/><path d="M112.398,33.945c1.01,1.412 1.602,3.141 1.602,4.999c0,0.016 -0,0.031 -0,0.046c-0,4.498 -3.466,8.236 -7.951,8.576c-15.533,1.176 -50.135,3.797 -70.086,5.308c-3.565,0.27 -7.084,-0.843 -9.837,-3.086c0.406,0.499 0.85,0.972 1.327,1.415c2.84,2.633 6.648,3.963 10.51,3.671c19.951,-1.511 54.553,-4.132 70.086,-5.308c4.485,-0.34 7.951,-4.078 7.951,-8.576c-0,-0.015 0,-0.03 0,-0.046c-0,-2.872 -1.413,-5.434 -3.602,-6.999Z" style="fill:#616262;"/><circle cx="37" cy="87" r="19" style="fill:#41b3e6;"/><path d="M24.605,101.395c-4.044,-3.485 -6.605,-8.643 -6.605,-14.395c0,-10.486 8.514,-19 19,-19c5.752,0 10.91,2.561 14.395,6.605c-3.328,-2.869 -7.66,-4.605 -12.395,-4.605c-10.486,0 -19,8.514 -19,19c0,4.735 1.736,9.067 4.605,12.395Z" style="fill:#2898d4;"/><path d="M44.59,74.09c-1.966,-0.902 -4.094,-1.539 -6.344,-1.86c-2.026,-0.289 -4.029,-0.303 -5.97,-0.072c-0.548,0.065 -0.94,0.563 -0.875,1.111c0.065,0.548 0.563,0.94 1.111,0.875c1.773,-0.211 3.602,-0.198 5.452,0.066c2.054,0.293 3.997,0.875 5.793,1.698c0.501,0.23 1.095,0.01 1.326,-0.492c0.23,-0.502 0.009,-1.096 -0.493,-1.326Z" style="fill:#fff;"/><path d="M48.76,80.488c-2.907,-2.762 -6.669,-4.679 -10.937,-5.288c-3.669,-0.523 -7.248,-0.013 -10.443,1.309c-0.51,0.211 -0.753,0.796 -0.542,1.306c0.211,0.51 0.796,0.753 1.306,0.542c2.875,-1.189 6.096,-1.647 9.397,-1.177c3.84,0.548 7.225,2.273 9.841,4.758c0.4,0.38 1.034,0.364 1.414,-0.036c0.38,-0.4 0.364,-1.034 -0.036,-1.414Z" style="fill:#fff;"/><path d="M49.864,86.755c-2.496,-4.491 -6.99,-7.804 -12.464,-8.585c-4.502,-0.642 -8.846,0.546 -12.277,2.998c-0.45,0.321 -0.554,0.946 -0.233,1.395c0.321,0.449 0.946,0.553 1.395,0.232c3.028,-2.163 6.861,-3.211 10.832,-2.645c4.831,0.689 8.796,3.613 10.999,7.577c0.268,0.482 0.878,0.656 1.36,0.388c0.482,-0.268 0.656,-0.878 0.388,-1.36Z" style="fill:#fff;"/><path d="M48.879,93.142c-0.811,-6.059 -5.557,-11.097 -11.903,-12.002c-4.98,-0.71 -9.726,1.299 -12.731,4.899c-0.353,0.424 -0.297,1.055 0.127,1.409c0.424,0.354 1.055,0.297 1.409,-0.127c2.576,-3.086 6.644,-4.81 10.913,-4.201c5.439,0.776 9.508,5.094 10.202,10.287c0.073,0.547 0.577,0.932 1.124,0.858c0.547,-0.073 0.932,-0.576 0.859,-1.123Z" style="fill:#fff;"/><path d="M45.35,99.102c0.475,-1.436 0.54,-2.347 0.549,-2.614c0.819,-5.985 -3.357,-11.524 -9.346,-12.378c-5.26,-0.75 -10.186,2.361 -11.906,7.177c-0.088,0.245 -0.167,0.494 -0.237,0.747c-0.148,0.531 0.163,1.083 0.695,1.231c0.532,0.148 1.083,-0.163 1.231,-0.695c0.058,-0.207 0.123,-0.41 0.194,-0.61c1.408,-3.94 5.438,-6.483 9.74,-5.87c4.918,0.701 8.341,5.263 7.64,10.18c-0.007,0.049 -0.01,0.098 -0.01,0.147c-0,0 -0.012,0.734 -0.449,2.058c-0.173,0.524 0.112,1.09 0.636,1.263c0.524,0.173 1.09,-0.112 1.263,-0.636Z" style="fill:#fff;"/><path d="M40.511,102.148c2.171,-3.455 2.393,-5.67 2.416,-6.07c0.592,-4.351 -2.444,-8.377 -6.798,-8.998c-4.074,-0.581 -7.873,2.023 -8.874,5.919c-0.146,0.245 -0.498,0.807 -1.093,1.581c-0.336,0.438 -0.254,1.066 0.184,1.402c0.438,0.337 1.066,0.254 1.402,-0.184c0.819,-1.065 1.23,-1.781 1.317,-1.936c0.045,-0.081 0.079,-0.167 0.1,-0.257c0.708,-2.981 3.59,-4.986 6.682,-4.545c3.278,0.467 5.56,3.509 5.093,6.787c-0.006,0.039 -0.009,0.077 -0.01,0.116c0,0 -0.091,1.904 -2.113,5.12c-0.293,0.468 -0.152,1.086 0.315,1.379c0.467,0.294 1.085,0.153 1.379,-0.314Z" style="fill:#fff;"/><path d="M39.955,95.668c0.367,-2.717 -1.53,-5.23 -4.249,-5.618c-2.613,-0.372 -5.044,1.35 -5.593,3.89c-0.136,0.307 -0.716,1.504 -2.166,3.262c-0.352,0.426 -0.291,1.056 0.135,1.408c0.425,0.351 1.056,0.29 1.407,-0.135c1.878,-2.276 2.468,-3.755 2.515,-3.875c0.023,-0.057 0.04,-0.116 0.052,-0.176c0.303,-1.557 1.779,-2.62 3.367,-2.394c1.64,0.234 2.781,1.754 2.547,3.393c-0.004,0.026 -0.006,0.051 -0.008,0.077c0,0 -0.197,2.174 -2.982,5.815c-0.335,0.438 -0.252,1.066 0.187,1.402c0.438,0.335 1.066,0.251 1.402,-0.187c3.043,-3.979 3.357,-6.521 3.386,-6.862Z" style="fill:#fff;"/><path d="M34.01,94.859c0,-0 -0.316,1.829 -2.985,4.99c-0.356,0.421 -0.303,1.053 0.119,1.409c0.422,0.356 1.053,0.303 1.409,-0.119c3.173,-3.757 3.437,-5.998 3.437,-5.998c0.078,-0.546 -0.302,-1.053 -0.849,-1.131c-0.546,-0.078 -1.053,0.302 -1.131,0.849Z" style="fill:#fff;"/><path d="M90.569,59.352c15.242,15.243 15.242,39.992 0,55.234c-0.78,0.781 -0.78,2.048 0,2.829c0.781,0.78 2.048,0.78 2.829,-0c16.803,-16.804 16.803,-44.088 -0,-60.891c-0.781,-0.781 -2.048,-0.781 -2.829,-0c-0.78,0.78 -0.78,2.048 0,2.828Zm-5.696,5.697c12.098,12.098 12.098,31.742 -0,43.841c-0.781,0.78 -0.781,2.047 -0,2.828c0.78,0.781 2.047,0.781 2.828,0c13.659,-13.659 13.659,-35.838 -0,-49.497c-0.781,-0.781 -2.048,-0.781 -2.828,-0c-0.781,0.78 -0.781,2.047 -0,2.828Zm-5.657,5.657c8.976,8.976 8.976,23.551 -0,32.527c-0.781,0.78 -0.781,2.048 -0,2.828c0.78,0.781 2.048,0.781 2.828,0c10.537,-10.537 10.537,-27.647 0,-38.184c-0.78,-0.78 -2.048,-0.78 -2.828,0c-0.781,0.781 -0.781,2.048 -0,2.829Zm-5.657,5.657c5.854,5.854 5.854,15.359 -0,21.213c-0.781,0.78 -0.781,2.048 -0,2.828c0.78,0.781 2.048,0.781 2.828,0c7.415,-7.415 7.415,-19.455 0,-26.87c-0.78,-0.78 -2.048,-0.78 -2.828,0c-0.781,0.781 -0.781,2.048 -0,2.829Zm-5.657,5.657c2.732,2.731 2.732,7.167 0,9.899c-0.781,0.781 -0.781,2.048 0,2.828c0.781,0.781 2.048,0.781 2.828,0c4.293,-4.292 4.293,-11.263 0,-15.556c-0.78,-0.78 -2.047,-0.78 -2.828,0c-0.781,0.781 -0.781,2.048 0,2.829Z" style="fill:#41b3e6;"/><path d="M93.002,56.217c15.181,16.894 14.646,42.947 -1.604,59.198c-0.391,0.39 -0.902,0.585 -1.414,0.585c-0,0.512 0.195,1.024 0.585,1.415c0.781,0.78 2.048,0.78 2.829,-0c16.803,-16.804 16.803,-44.088 -0,-60.891c-0.122,-0.121 -0.255,-0.224 -0.396,-0.307Zm-5.735,5.674c12.072,13.741 11.55,34.711 -1.566,47.827c-0.39,0.39 -0.902,0.585 -1.414,0.585c0,0.513 0.195,1.025 0.586,1.415c0.78,0.781 2.047,0.781 2.828,0c13.659,-13.659 13.659,-35.838 -0,-49.497c-0.132,-0.133 -0.278,-0.242 -0.434,-0.33Zm-5.71,5.628c8.997,10.603 8.493,26.536 -1.513,36.542c-0.39,0.39 -0.902,0.585 -1.414,0.586c0,0.512 0.195,1.024 0.586,1.414c0.78,0.781 2.048,0.781 2.828,0c10.537,-10.537 10.537,-27.647 0,-38.184c-0.147,-0.147 -0.312,-0.266 -0.487,-0.358Zm-5.738,5.617c5.948,7.457 5.47,18.366 -1.432,25.268c-0.39,0.39 -0.902,0.586 -1.414,0.586c0,0.512 0.196,1.024 0.586,1.414c0.78,0.781 2.048,0.781 2.828,0c7.415,-7.415 7.415,-19.455 0,-26.87c-0.169,-0.169 -0.362,-0.302 -0.568,-0.398Zm-5.805,5.595c2.955,4.285 2.527,10.206 -1.284,14.016c-0.39,0.391 -0.902,0.586 -1.413,0.586c-0,0.512 0.195,1.024 0.585,1.414c0.781,0.781 2.048,0.781 2.828,0c4.293,-4.292 4.293,-11.263 0,-15.556c-0.21,-0.21 -0.455,-0.363 -0.716,-0.46Z" style="fill:#2898d4;"/></svg>